<svg xmlns="http://www.w3.org/2000/svg" viewBox="0 0 600 400" width="600" height="400">
  <defs>
    <linearGradient id="bbqGrad" x1="0%" y1="0%" x2="0%" y2="100%">
      <stop offset="0%" style="stop-color:#696969;stop-opacity:1" />
      <stop offset="100%" style="stop-color:#2F4F4F;stop-opacity:1" />
    </linearGradient>
  </defs>
  
  <!-- Background -->
  <rect width="600" height="400" fill="#87CEEB"/>
  
  <!-- Ground -->
  <rect x="0" y="300" width="600" height="100" fill="#9ACD32"/>
  
  <!-- Main BBQ structure -->
  <rect x="200" y="200" width="200" height="150" fill="url(#bbqGrad)"/>
  
  <!-- BBQ lid -->
  <ellipse cx="300" cy="200" rx="100" ry="20" fill="#2F4F4F"/>
  <rect x="250" y="180" width="100" height="20" fill="#2F4F4F"/>
  
  <!-- Grill grates -->
  <line x1="220" y1="250" x2="380" y2="250" stroke="#2F4F4F" stroke-width="3"/>
  <line x1="220" y1="270" x2="380" y2="270" stroke="#2F4F4F" stroke-width="3"/>
  <line x1="220" y1="290" x2="380" y2="290" stroke="#2F4F4F" stroke-width="3"/>
  
  <!-- Fire/Coals -->
  <ellipse cx="300" cy="320" rx="80" ry="15" fill="#FF4500" opacity="0.8"/>
  <circle cx="280" cy="320" r="8" fill="#FFD700" opacity="0.9"/>
  <circle cx="320" cy="320" r="8" fill="#FFD700" opacity="0.9"/>
  <circle cx="300" cy="315" r="6" fill="#FFD700" opacity="0.9"/>
  
  <!-- BBQ legs -->
  <rect x="210" y="350" width="10" height="30" fill="#2F4F4F"/>
  <rect x="380" y="350" width="10" height="30" fill="#2F4F4F"/>
  
  <!-- Side tables -->
  <rect x="120" y="250" width="60" height="80" fill="#8B4513"/>
  <rect x="420" y="250" width="60" height="80" fill="#8B4513"/>
  
  <!-- Table legs -->
  <rect x="130" y="330" width="5" height="20" fill="#654321"/>
  <rect x="165" y="330" width="5" height="20" fill="#654321"/>
  <rect x="430" y="330" width="5" height="20" fill="#654321"/>
  <rect x="465" y="330" width="5" height="20" fill="#654321"/>
  
  <!-- Cooking utensils -->
  <line x1="150" y="260" x2="150" y2="280" stroke="#8B4513" stroke-width="3"/>
  <line x1="450" y="260" x2="450" y2="280" stroke="#8B4513" stroke-width="3"/>
  
  <!-- Spatula -->
  <line x1="160" y="270" x2="180" y2="270" stroke="#8B4513" stroke-width="2"/>
  <rect x="175" y="268" width="8" height="4" fill="#C0C0C0"/>
  
  <!-- Tongs -->
  <line x1="460" y="270" x2="480" y2="270" stroke="#8B4513" stroke-width="2"/>
  <line x1="470" y="265" x2="470" y2="275" stroke="#C0C0C0" stroke-width="2"/>
  
  <!-- Food on grill -->
  <ellipse cx="280" cy="250" rx="15" ry="8" fill="#8B4513"/>
  <ellipse cx="320" cy="250" rx="15" ry="8" fill="#8B4513"/>
  <ellipse cx="300" cy="270" rx="12" ry="6" fill="#8B4513"/>
  
  <!-- Seasoning containers -->
  <circle cx="140" cy="280" r="8" fill="#FFD700"/>
  <circle cx="460" cy="280" r="8" fill="#FFD700"/>
  
  <!-- Storage cabinet -->
  <rect x="100" y="200" width="40" height="100" fill="#8B4513"/>
  <rect x="105" y="210" width="30" height="5" fill="#654321"/>
  <rect x="105" y="220" width="30" height="5" fill="#654321"/>
  <rect x="105" y="230" width="30" height="5" fill="#654321"/>
  
  <!-- Chimney -->
  <rect x="290" y="150" width="20" height="50" fill="#2F4F4F"/>
  <ellipse cx="300" cy="150" rx="15" ry="5" fill="#2F4F4F"/>
  
  <!-- Smoke -->
  <path d="M300 150 Q310 140 320 150 Q330 160 340 150" stroke="#C0C0C0" stroke-width="2" fill="none" opacity="0.6"/>
  <path d="M300 140 Q305 130 310 140 Q315 150 320 140" stroke="#C0C0C0" stroke-width="2" fill="none" opacity="0.4"/>
  
  <!-- Decorative elements -->
  <circle cx="80" cy="320" r="12" fill="#32CD32"/>
  <circle cx="520" cy="320" r="12" fill="#32CD32"/>
  
  <!-- Lighting -->
  <circle cx="250" cy="100" r="8" fill="#FFD700" opacity="0.8"/>
  <circle cx="350" cy="100" r="8" fill="#FFD700" opacity="0.8"/>
</svg>
