<svg xmlns="http://www.w3.org/2000/svg" viewBox="0 0 600 400" width="600" height="400">
  <defs>
    <linearGradient id="poolGrad" x1="0%" y1="0%" x2="0%" y2="100%">
      <stop offset="0%" style="stop-color:#4A90E2;stop-opacity:1" />
      <stop offset="100%" style="stop-color:#2E5BBA;stop-opacity:1" />
    </linearGradient>
    <linearGradient id="deckGrad" x1="0%" y1="0%" x2="0%" y2="100%">
      <stop offset="0%" style="stop-color:#F5F5DC;stop-opacity:1" />
      <stop offset="100%" style="stop-color:#D2B48C;stop-opacity:1" />
    </linearGradient>
  </defs>
  
  <!-- Background -->
  <rect width="600" height="400" fill="#87CEEB"/>
  
  <!-- Pool -->
  <ellipse cx="300" cy="250" rx="200" ry="80" fill="url(#poolGrad)"/>
  <ellipse cx="300" cy="240" rx="180" ry="60" fill="#87CEEB" opacity="0.3"/>
  
  <!-- Pool deck -->
  <ellipse cx="300" cy="250" rx="220" ry="100" fill="url(#deckGrad)"/>
  
  <!-- Pool edge -->
  <ellipse cx="300" cy="250" rx="200" ry="80" fill="none" stroke="#8B4513" stroke-width="3"/>
  
  <!-- Sun loungers -->
  <rect x="150" y="180" width="80" height="20" fill="#8B4513" rx="10"/>
  <rect x="370" y="180" width="80" height="20" fill="#8B4513" rx="10"/>
  
  <!-- Umbrellas -->
  <circle cx="190" cy="160" r="25" fill="#FF6B6B"/>
  <rect x="185" y="160" width="10" height="30" fill="#8B4513"/>
  
  <circle cx="410" cy="160" r="25" fill="#4ECDC4"/>
  <rect x="405" y="160" width="10" height="30" fill="#8B4513"/>
  
  <!-- Pool steps -->
  <rect x="280" y="250" width="40" height="20" fill="#D2B48C"/>
  <rect x="285" y="270" width="30" height="15" fill="#D2B48C"/>
  
  <!-- Water reflections -->
  <ellipse cx="250" cy="230" rx="30" ry="10" fill="#FFFFFF" opacity="0.4"/>
  <ellipse cx="350" cy="240" rx="20" ry="8" fill="#FFFFFF" opacity="0.3"/>
</svg>
