<svg xmlns="http://www.w3.org/2000/svg" viewBox="0 0 600 400" width="600" height="400">
  <defs>
    <linearGradient id="roofGrad" x1="0%" y1="0%" x2="0%" y2="100%">
      <stop offset="0%" style="stop-color:#8B4513;stop-opacity:1" />
      <stop offset="100%" style="stop-color:#654321;stop-opacity:1" />
    </linearGradient>
  </defs>
  
  <!-- Background -->
  <rect width="600" height="400" fill="#87CEEB"/>
  
  <!-- Ground -->
  <rect x="0" y="300" width="600" height="100" fill="#9ACD32"/>
  
  <!-- Quincho structure -->
  <rect x="100" y="200" width="400" height="150" fill="#D2B48C"/>
  
  <!-- Roof -->
  <path d="M100 200 L300 120 L500 200" fill="url(#roofGrad)"/>
  
  <!-- BBQ/Grill area -->
  <rect x="150" y="250" width="100" height="80" fill="#696969"/>
  <rect x="160" y="240" width="80" height="15" fill="#2F4F4F"/>
  
  <!-- Grill grates -->
  <line x1="170" y1="260" x2="230" y2="260" stroke="#2F4F4F" stroke-width="2"/>
  <line x1="170" y1="270" x2="230" y2="270" stroke="#2F4F4F" stroke-width="2"/>
  <line x1="170" y1="280" x2="230" y2="280" stroke="#2F4F4F" stroke-width="2"/>
  
  <!-- Tables -->
  <rect x="300" y="280" width="80" height="60" fill="#8B4513"/>
  <rect x="320" y="340" width="5" height="20" fill="#654321"/>
  <rect x="355" y="340" width="5" height="20" fill="#654321"/>
  
  <rect x="420" y="280" width="60" height="50" fill="#8B4513"/>
  <rect x="435" y="330" width="5" height="20" fill="#654321"/>
  <rect x="460" y="330" width="5" height="20" fill="#654321"/>
  
  <!-- Chairs -->
  <rect x="280" y="300" width="15" height="20" fill="#654321"/>
  <rect x="385" y="300" width="15" height="20" fill="#654321"/>
  <rect x="400" y="300" width="15" height="20" fill="#654321"/>
  <rect x="485" y="300" width="15" height="20" fill="#654321"/>
  
  <!-- Counter -->
  <rect x="120" y="220" width="200" height="20" fill="#A0522D"/>
  
  <!-- Sink -->
  <rect x="200" y="240" width="40" height="15" fill="#C0C0C0"/>
  <circle cx="220" cy="247" r="15" fill="#4A90E2" opacity="0.7"/>
  
  <!-- Storage -->
  <rect x="120" y="240" width="60" height="80" fill="#8B4513"/>
  <rect x="130" y="250" width="40" height="5" fill="#654321"/>
  <rect x="130" y="260" width="40" height="5" fill="#654321"/>
  <rect x="130" y="270" width="40" height="5" fill="#654321"/>
  
  <!-- Decorative plants -->
  <circle cx="80" cy="320" r="15" fill="#32CD32"/>
  <circle cx="520" cy="320" r="15" fill="#32CD32"/>
  
  <!-- Lighting -->
  <circle cx="200" cy="180" r="8" fill="#FFD700" opacity="0.8"/>
  <circle cx="300" cy="160" r="8" fill="#FFD700" opacity="0.8"/>
  <circle cx="400" cy="180" r="8" fill="#FFD700" opacity="0.8"/>
</svg>
