<svg xmlns="http://www.w3.org/2000/svg" viewBox="0 0 600 400" width="600" height="400">
  <defs>
    <linearGradient id="terraceGrad" x1="0%" y1="0%" x2="0%" y2="100%">
      <stop offset="0%" style="stop-color:#F5F5DC;stop-opacity:1" />
      <stop offset="100%" style="stop-color:#D2B48C;stop-opacity:1" />
    </linearGradient>
  </defs>
  
  <!-- Background sky -->
  <rect width="600" height="200" fill="#87CEEB"/>
  
  <!-- Terrace floor -->
  <rect x="0" y="200" width="600" height="200" fill="url(#terraceGrad)"/>
  
  <!-- Terrace railing -->
  <rect x="0" y="190" width="600" height="10" fill="#8B4513"/>
  <line x1="50" y="190" x2="50" y2="150" stroke="#8B4513" stroke-width="3"/>
  <line x1="150" y="190" x2="150" y2="150" stroke="#8B4513" stroke-width="3"/>
  <line x1="250" y="190" x2="250" y2="150" stroke="#8B4513" stroke-width="3"/>
  <line x1="350" y="190" x2="350" y2="150" stroke="#8B4513" stroke-width="3"/>
  <line x1="450" y="190" x2="450" y2="150" stroke="#8B4513" stroke-width="3"/>
  <line x1="550" y="190" x2="550" y2="150" stroke="#8B4513" stroke-width="3"/>
  
  <!-- Outdoor furniture set 1 -->
  <rect x="100" y="250" width="80" height="60" fill="#8B4513"/>
  <rect x="110" y="310" width="5" height="20" fill="#654321"/>
  <rect x="165" y="310" width="5" height="20" fill="#654321"/>
  
  <!-- Chairs for set 1 -->
  <rect x="80" y="270" width="15" height="25" fill="#654321"/>
  <rect x="185" y="270" width="15" height="25" fill="#654321"/>
  <rect x="80" y="300" width="15" height="25" fill="#654321"/>
  <rect x="185" y="300" width="15" height="25" fill="#654321"/>
  
  <!-- Outdoor furniture set 2 -->
  <rect x="400" y="250" width="80" height="60" fill="#8B4513"/>
  <rect x="410" y="310" width="5" height="20" fill="#654321"/>
  <rect x="465" y="310" width="5" height="20" fill="#654321"/>
  
  <!-- Chairs for set 2 -->
  <rect x="380" y="270" width="15" height="25" fill="#654321"/>
  <rect x="485" y="270" width="15" height="25" fill="#654321"/>
  <rect x="380" y="300" width="15" height="25" fill="#654321"/>
  <rect x="485" y="300" width="15" height="25" fill="#654321"/>
  
  <!-- Umbrellas -->
  <circle cx="140" cy="220" r="30" fill="#FF6B6B"/>
  <rect x="135" y="220" width="10" height="40" fill="#8B4513"/>
  
  <circle cx="440" cy="220" r="30" fill="#4ECDC4"/>
  <rect x="435" y="220" width="10" height="40" fill="#8B4513"/>
  
  <!-- Planters -->
  <rect x="50" y="320" width="30" height="20" fill="#8B4513"/>
  <circle cx="65" cy="310" r="12" fill="#32CD32"/>
  
  <rect x="520" y="320" width="30" height="20" fill="#8B4513"/>
  <circle cx="535" cy="310" r="12" fill="#32CD32"/>
  
  <rect x="300" y="320" width="30" height="20" fill="#8B4513"/>
  <circle cx="315" cy="310" r="12" fill="#32CD32"/>
  
  <!-- Decorative lights -->
  <circle cx="100" cy="100" r="5" fill="#FFD700" opacity="0.8"/>
  <circle cx="200" cy="80" r="5" fill="#FFD700" opacity="0.8"/>
  <circle cx="300" cy="90" r="5" fill="#FFD700" opacity="0.8"/>
  <circle cx="400" cy="85" r="5" fill="#FFD700" opacity="0.8"/>
  <circle cx="500" cy="95" r="5" fill="#FFD700" opacity="0.8"/>
  
  <!-- Outdoor rug -->
  <ellipse cx="300" cy="350" rx="80" ry="30" fill="#8B4513" opacity="0.3"/>
  
  <!-- View in background -->
  <rect x="0" y="0" width="600" height="200" fill="#87CEEB" opacity="0.7"/>
  <circle cx="100" cy="50" r="20" fill="#FFD700" opacity="0.6"/>
  <path d="M0 150 Q150 100 300 120 T600 110" stroke="#32CD32" stroke-width="3" fill="none"/>
</svg>
